<?xml version="1.0" encoding="UTF-8" standalone="no"?>
<svg xmlns="http://www.w3.org/2000/svg" width="200" height="80" viewBox="0 0 200 80">
  <path fill="#0066B3" d="M35.2,20.8c-8.7,0-15.8,7.1-15.8,15.8s7.1,15.8,15.8,15.8c3.9,0,7.5-1.4,10.2-3.8
    c-1.8,5.3-6.8,9.1-12.7,9.1c-7.4,0-13.4-6-13.4-13.4s6-13.4,13.4-13.4c2.9,0,5.6,0.9,7.8,2.5l3.1-4.8
    C41.1,21.8,37.3,20.8,35.2,20.8z"/>
  <path fill="#0066B3" d="M89.6,20.8c-8.7,0-15.8,7.1-15.8,15.8s7.1,15.8,15.8,15.8c8.7,0,15.8-7.1,15.8-15.8S98.3,20.8,89.6,20.8z
     M89.6,47.7c-6.1,0-11.1-5-11.1-11.1s5-11.1,11.1-11.1s11.1,5,11.1,11.1S95.7,47.7,89.6,47.7z"/>
  <path fill="#0066B3" d="M144,20.8c-8.7,0-15.8,7.1-15.8,15.8s7.1,15.8,15.8,15.8s15.8-7.1,15.8-15.8S152.7,20.8,144,20.8z
     M144,47.7c-6.1,0-11.1-5-11.1-11.1s5-11.1,11.1-11.1s11.1,5,11.1,11.1S150.1,47.7,144,47.7z"/>
</svg>